# xmcd
#
# Track frame offsets: 
#        150
#        26317
#        55682
#        78525
#        102760
#        123222
#        143565
#        165423
#        183820
#        203432
#        244237
#        274606
#
# Disc length: 4001 seconds
#
# Revision: 3
# Processed by: cddbd v1.5.2PL0 Copyright (c) Steve Scherf et al.
# Submitted via: ExactAudioCopyFreeDBPlugin 1.0
#
DISCID=8a0f9f0c
DTITLE=S.O.S. Band - III
DYEAR=1982
DGENRE=Funk
TTITLE0=Can't Get Enough
TTITLE1=High Hopes
TTITLE2=Have It Your Way
TTITLE3=Your Love (It's The One For Me)
TTITLE4=Good and Plenty
TTITLE5=Looking For You
TTITLE6=These Are The Things
TTITLE7=You Shake Me Up
TTITLE8=Groovin' (That's What We're Doin')
TTITLE9=Just Be Good To Me (Vocal Mix)
TTITLE10=No One's Gonna Love You (Long Version)
TTITLE11=Weekend Girl (Album Edit Version)
EXTD=
EXTT0=
EXTT1=
EXTT2=
EXTT3=
EXTT4=
EXTT5=
EXTT6=
EXTT7=
EXTT8=
EXTT9=
EXTT10=
EXTT11=
PLAYORDER=
